<svg version="1.2" xmlns="http://www.w3.org/2000/svg" viewBox="214 206 313 215" width="313" height="215">
	<title>New Project</title>
	<style>
		.s0 { fill: #ffb555;stroke: #000000;stroke-miterlimit:10;stroke-width: 5 } 
	</style>
	<g id="Layer 1">
		<path id="Shape 1" fill-rule="evenodd" class="s0" d="m245 242l41 1 15 72 39-73h37l-61 108h-44z"/>
		<path id="Shape 2" fill-rule="evenodd" class="s0" d="m425.6 265.8c0 0 47.4-12.4 70.4 19.2l13-26c0 0-45.1-31.7-99.4-9 0 0-68 56.8 25.4 57 0 0 43.7 9.4-11.8 18.8 0 0-37.9-6.7-47.4-18.1 0 0-9 15.8-17 28.3 0 0 57 33.9 111.9 1.1 0 0 28.4-36.2-0.7-47.1 0 0-86.4 0.7-44.4-24.2z"/>
	</g>
</svg>